<svg width="113" height="108" viewBox="0 0 113 108" fill="none" xmlns="http://www.w3.org/2000/svg">
<path d="M38.6583 34.7297L3.01402 38.6887C1.72844 38.8446 0.591721 39.7056 0.165451 41.0139C-0.260819 42.3223 0.16545 43.6849 1.11272 44.5459C11.7086 54.2333 27.6294 68.7406 27.6294 68.7406C27.6159 68.7406 23.2585 89.8441 20.3625 103.924C20.2245 104.562 20.2744 105.225 20.5062 105.835C20.7379 106.444 21.1415 106.973 21.6679 107.357C22.1942 107.74 22.8205 107.962 23.4705 107.996C24.1205 108.029 24.7662 107.872 25.3289 107.544C37.8058 100.44 56.494 89.756 56.494 89.756L87.6456 107.551C88.7823 108.175 90.2032 108.161 91.3061 107.355C91.8308 106.971 92.2342 106.444 92.4682 105.837C92.7022 105.23 92.7568 104.569 92.6255 103.931L85.3789 68.7406L111.896 44.5662C112.376 44.1285 112.72 43.5614 112.887 42.9329C113.053 42.3043 113.036 41.6408 112.836 41.022C112.636 40.4032 112.262 39.8553 111.759 39.4439C111.257 39.0324 110.646 38.7749 110.001 38.7022C95.7379 37.1024 74.35 34.7297 74.35 34.7297L59.5794 1.98638C59.3115 1.39421 58.879 0.891918 58.3336 0.539635C57.7882 0.187353 57.1531 0 56.5042 0C55.8553 0 55.2201 0.187353 54.6747 0.539635C54.1293 0.891918 53.6968 1.39421 53.4289 1.98638L38.6583 34.7297Z" fill="#E97C18"/>
</svg>
