<svg width="54" height="52" viewBox="0 0 54 52" fill="none" xmlns="http://www.w3.org/2000/svg">
<path d="M9.67309 49.1187C9.40984 50.6172 10.8881 51.7883 12.1908 51.1201L27.0071 43.5061L41.82 51.1201C43.1227 51.7883 44.601 50.6172 44.3377 49.1221L41.5365 33.1583L53.4232 21.8318C54.537 20.7721 53.9632 18.8348 52.4715 18.6256L35.9407 16.2766L28.5697 1.67295C28.4293 1.37693 28.2078 1.12682 27.9309 0.951691C27.654 0.77656 27.333 0.683594 27.0054 0.683594C26.6778 0.683594 26.3568 0.77656 26.0799 0.951691C25.803 1.12682 25.5815 1.37693 25.4411 1.67295L18.0701 16.28L1.53934 18.629C0.0509631 18.8382 -0.526162 20.7755 0.584213 21.8352L12.4743 33.1617L9.67309 49.1255V49.1187ZM26.2275 39.7801L13.7872 46.1723L16.1295 32.8175C16.1843 32.51 16.1629 32.1938 16.0669 31.8967C15.971 31.5995 15.8036 31.3304 15.5793 31.1131L5.77159 21.7643L19.4471 19.8203C19.7303 19.7776 19.9989 19.6668 20.2299 19.4975C20.4609 19.3282 20.6474 19.1055 20.7735 18.8483L27.0003 6.50258L33.234 18.8483C33.36 19.1055 33.5466 19.3282 33.7776 19.4975C34.0086 19.6668 34.2772 19.7776 34.5603 19.8203L48.2358 21.761L38.4281 31.1097C38.2033 31.3274 38.0356 31.597 37.9396 31.8948C37.8437 32.1927 37.8225 32.5095 37.878 32.8175L40.2202 46.1723L27.78 39.7801C27.5394 39.6561 27.2727 39.5913 27.002 39.5913C26.7314 39.5913 26.468 39.6561 26.2275 39.7801Z" fill="#B6B6B6"/>
</svg>
